<?xml version="1.0" encoding="UTF-8"?>
<svg xmlns="http://www.w3.org/2000/svg" version="1.1" viewBox="0 0 56 49">
  <defs>
    <style>
      .cls-1 {
        fill: none;
        stroke: #de7d61;
        stroke-miterlimit: 10;
        stroke-width: .8px;
      }
    </style>
  </defs>
  <!-- Generator: Adobe Illustrator 28.6.0, SVG Export Plug-In . SVG Version: 1.2.0 Build 709)  -->
  <g>
    <g id="Layer_1">
      <g id="Layer_1-2" data-name="Layer_1">
        <path class="cls-1" d="M.9.6v47.6"/>
        <path class="cls-1" d="M3.2,1.2v47"/>
        <path class="cls-1" d="M5.1,1.8v46.4"/>
        <path class="cls-1" d="M10.7,3.2v45"/>
        <path class="cls-1" d="M12.6,3.8v44.4"/>
        <path class="cls-1" d="M15.7,4.7v43.5"/>
        <path class="cls-1" d="M20.6,6v42.2"/>
        <path class="cls-1" d="M22.4,6.5v41.7"/>
        <path class="cls-1" d="M25,7.2v41"/>
        <path class="cls-1" d="M26.5,7.6v40.6"/>
        <path class="cls-1" d="M29.2,8.4v39.8"/>
        <path class="cls-1" d="M32.9,9.4v38.8"/>
        <path class="cls-1" d="M34.1,9.7v38.5"/>
        <path class="cls-1" d="M35.2,10v38.2"/>
        <path class="cls-1" d="M36.4,10.3v37.9"/>
        <path class="cls-1" d="M39.5,11.2v37"/>
        <path class="cls-1" d="M42.5,12v36.2"/>
        <path class="cls-1" d="M44.4,12.5v35.7"/>
        <path class="cls-1" d="M44.8,12.6v35.6"/>
        <path class="cls-1" d="M45.2,12.7v35.5"/>
        <path class="cls-1" d="M46.1,13v35.2"/>
        <path class="cls-1" d="M46.5,13.1v35.1"/>
        <path class="cls-1" d="M47.9,13.5v34.7"/>
        <path class="cls-1" d="M49.4,13.9v34.3"/>
        <path class="cls-1" d="M49.9,14.1v34.1"/>
        <path class="cls-1" d="M50.5,14.2v34"/>
        <path class="cls-1" d="M51,14.3v33.9"/>
        <path class="cls-1" d="M52.5,14.7v33.5"/>
        <path class="cls-1" d="M53,15v33.2"/>
        <path class="cls-1" d="M53.5,15.1v33.1"/>
        <path class="cls-1" d="M54.1,15.2v33"/>
        <path class="cls-1" d="M54.6,15.3v32.9"/>
        <path class="cls-1" d="M55.1,15.5v32.7"/>
        <path class="cls-1" d="M45.7,12.8v35.4"/>
      </g>
    </g>
  </g>
</svg>